<svg xmlns:xlink="http://www.w3.org/1999/xlink" xmlns="http://www.w3.org/2000/svg" viewBox="0 0 48 48" width="172" height="172"><path d="M 11.5 6 C 8.4802259 6 6 8.4802259 6 11.5 L 6 36.5 C 6 39.519774 8.4802259 42 11.5 42 L 36.5 42 C 39.519774 42 42 39.519774 42 36.5 L 42 32.769531 A 1.50015 1.50015 0 0 0 42 32.279297 L 42 11.5 C 42 8.4802259 39.519774 6 36.5 6 L 11.5 6 z M 25.5 9 L 36.5 9 C 37.898226 9 39 10.101774 39 11.5 L 39 22.5 L 25.5 22.5 L 25.5 9 z M 9 25.5 L 12.320312 25.5 A 1.5 1.5 0 0 0 13.765625 27.404297 A 1.5 1.5 0 0 0 15.208984 25.5 L 20.320312 25.5 A 1.5 1.5 0 0 0 21.765625 27.404297 A 1.5 1.5 0 0 0 22.5 27.210938 L 22.5 32.597656 A 1.5 1.5 0 0 0 21.765625 32.404297 A 1.5 1.5 0 0 0 21.765625 35.404297 A 1.5 1.5 0 0 0 22.5 35.210938 L 22.5 39 L 18.787109 39 A 1.5 1.5 0 0 0 17.765625 36.404297 A 1.5 1.5 0 0 0 16.742188 39 L 11.5 39 C 11.281744 39 11.073794 38.964691 10.873047 38.914062 A 1.5 1.5 0 0 0 9.765625 36.404297 A 1.5 1.5 0 0 0 9.0117188 36.609375 C 9.0101469 36.57229 9 36.537528 9 36.5 L 9 31.193359 A 1.5 1.5 0 0 0 9.765625 31.404297 A 1.5 1.5 0 0 0 9.765625 28.404297 A 1.5 1.5 0 0 0 9 28.617188 L 9 25.5 z M 27.621094 25.5 L 31.382812 25.5 A 1.50015 1.50015 0 0 0 31.439453 25.560547 L 39 33.121094 L 39 36.5 C 39 36.617889 38.980025 36.730558 38.964844 36.84375 L 27.621094 25.5 z M 35.621094 25.5 L 39 25.5 L 39 28.878906 L 35.621094 25.5 z M 25.5 27.621094 L 36.84375 38.964844 C 36.730558 38.980025 36.617889 39 36.5 39 L 33.119141 39 A 1.50015 1.50015 0 0 0 33.060547 38.939453 L 25.560547 31.439453 A 1.50015 1.50015 0 0 0 25.5 31.382812 L 25.5 27.621094 z M 17.765625 28.404297 A 1.5 1.5 0 0 0 17.765625 31.404297 A 1.5 1.5 0 0 0 17.765625 28.404297 z M 13.765625 32.404297 A 1.5 1.5 0 0 0 13.765625 35.404297 A 1.5 1.5 0 0 0 13.765625 32.404297 z M 25.5 35.621094 L 28.878906 39 L 25.5 39 L 25.5 35.621094 z"></path></svg>