<svg xmlns:xlink="http://www.w3.org/1999/xlink" xmlns="http://www.w3.org/2000/svg" viewBox="0 0 48 48" width="172" height="172"><path d="M 18.429688 4.9863281 A 1.50015 1.50015 0 0 0 17.902344 5.1054688 C 10.622496 5.3956354 6 10.412918 6 15.742188 C 6 18.323633 6.6600191 20.976174 8.3808594 22.904297 C 10.1017 24.83242 12.974455 25.771308 16.373047 24.898438 A 1.5002454 1.5002454 0 0 0 16.560547 24.833984 A 3.5 3.5 0 0 0 15.5 18 A 3.5 3.5 0 0 0 12.029297 21.955078 C 11.473864 21.715798 11.018528 21.353746 10.619141 20.90625 C 9.5899805 19.753123 9 17.782742 9 15.742188 C 9 12.112211 12.020323 8.3468031 17.939453 8.0917969 C 22.718688 12.714902 24.598779 16.92465 24.822266 20.664062 C 25.053848 24.53894 23.556371 28.068945 21.345703 31.132812 C 16.924368 37.260548 9.7851563 41.181641 9.7851562 41.181641 A 1.50015 1.50015 0 0 0 10.734375 43.982422 C 10.734375 43.982422 16.679559 43.051788 22.675781 40.025391 C 28.672004 36.998993 35 31.613548 35 22.931641 C 35 15.862912 32.116988 11.209131 28.599609 8.5175781 C 25.27432 5.9730148 21.603417 5.1703101 19.013672 5.0820312 A 1.50015 1.50015 0 0 0 18.429688 4.9863281 z M 22.738281 8.8613281 C 24.080891 9.3180197 25.49184 9.9181974 26.775391 10.900391 C 29.633012 13.087087 32 16.64937 32 22.931641 C 32 30.168733 26.827996 34.567851 21.324219 37.345703 C 20.384382 37.820055 19.645396 37.958702 18.730469 38.328125 C 20.475603 36.772984 22.239296 35.023032 23.779297 32.888672 C 26.256129 29.455914 28.102402 25.237029 27.818359 20.484375 C 27.597639 16.791242 26.020636 12.864007 22.738281 8.8613281 z M 40 16 A 2 2 0 0 0 40 20 A 2 2 0 0 0 40 16 z M 40 27 A 2 2 0 0 0 40 31 A 2 2 0 0 0 40 27 z"></path></svg>