<svg xmlns:xlink="http://www.w3.org/1999/xlink" xmlns="http://www.w3.org/2000/svg" viewBox="0 0 48 48" width="172" height="172"><path d="M 9.0996094 4 C 6.3007442 4 4 6.3007442 4 9.0996094 L 4 37.900391 C 4 40.699256 6.3007442 43 9.0996094 43 L 37.900391 43 C 40.699256 43 43 40.699256 43 37.900391 L 43 27.855469 A 1.50015 1.50015 0 0 0 43 27.464844 L 43 9.0996094 C 43 6.3007442 40.699256 4 37.900391 4 L 9.0996094 4 z M 9.0996094 7 L 37.900391 7 C 39.077525 7 40 7.9224746 40 9.0996094 L 40 26.875 C 39.71639 27.039107 39.404057 27.196325 39.087891 27.310547 C 38.539094 27.50881 37.990138 27.529278 37.990234 27.529297 C 36.120993 27.156459 34.760474 26.997816 33.025391 27.576172 C 31.546409 28.069166 30.445926 29.095191 29.431641 29.904297 C 28.417355 30.713402 27.449903 31.146484 27.5 31.146484 C 27.388227 31.146484 26.842972 30.991276 26.064453 30.726562 C 25.285934 30.461855 24.25 30.146484 23 30.146484 C 22.099043 30.146484 21.120495 30.309436 20.150391 30.53125 C 20.16719 30.200718 20.191167 29.874874 20.228516 29.568359 C 20.300516 28.975359 19.546875 28.666812 19.171875 29.132812 C 18.499875 29.968812 17.927734 30.738281 17.927734 30.738281 C 17.927734 30.738281 16.945312 28.778359 16.945312 26.818359 C 16.945312 24.535359 16.576844 24.2355 15.964844 20.9375 C 15.668844 19.3415 15.634219 19.383422 15.449219 18.357422 C 14.548219 13.365422 15.449 10.697 14.5 10.5 C 13.919 10.38 13.500953 11.999719 13.376953 12.886719 C 13.186953 14.243719 13.068437 15.205156 13.023438 16.035156 L 13.023438 23.878906 C 13.023438 25.838906 12.042969 28.778766 12.042969 29.759766 C 12.042969 30.112902 12.182505 30.604546 12.345703 31.121094 C 10.725974 30.758948 8.951902 30.468718 7 30.255859 L 7 9.0996094 C 7 7.9224746 7.9224746 7 9.0996094 7 z M 21 8 A 1 1 0 0 0 21 10 A 1 1 0 0 0 21 8 z M 36.5 9 A 1.5 1.5 0 0 0 36.5 12 A 1.5 1.5 0 0 0 36.5 9 z M 10 12 A 1 1 0 0 0 10 14 A 1 1 0 0 0 10 12 z M 20.984375 12.015625 C 19.462284 12.015625 18.058179 12.592145 17.001953 13.535156 A 1.50015 1.50015 0 1 0 18.998047 15.773438 C 19.527821 15.300448 20.214466 15.015625 20.984375 15.015625 A 1.50015 1.50015 0 1 0 20.984375 12.015625 z M 24.984375 12.015625 A 1.50015 1.50015 0 1 0 24.984375 15.015625 C 26.647254 15.015625 27.96875 16.336717 27.96875 18 A 1.50015 1.50015 0 1 0 30.96875 18 C 30.96875 14.713283 28.271496 12.015625 24.984375 12.015625 z M 24.492188 17.494141 A 1.50015 1.50015 0 0 0 23.015625 19.015625 C 23.015625 22.302746 25.713283 25 29 25 A 1.50015 1.50015 0 1 0 29 22 C 27.336717 22 26.015625 20.678504 26.015625 19.015625 A 1.50015 1.50015 0 0 0 24.492188 17.494141 z M 36.556641 20.847656 A 1.50015 1.50015 0 0 0 35.501953 21.242188 C 34.971983 21.714682 34.285534 22 33.515625 22 A 1.50015 1.50015 0 1 0 33.515625 25 C 35.037716 25 36.442017 24.423926 37.498047 23.482422 A 1.50015 1.50015 0 0 0 36.556641 20.847656 z M 9.5644531 22 A 1.5 1.5 0 0 0 9.5644531 25 A 1.5 1.5 0 0 0 9.5644531 22 z M 21.5 24.5 A 1 1 0 0 0 21.5 26.5 A 1 1 0 0 0 21.5 24.5 z M 35.476562 30.152344 C 35.946537 30.171121 36.486965 30.288125 37.402344 30.470703 C 38.360655 30.662365 39.182307 30.456453 40 30.167969 L 40 37.900391 C 40 39.077525 39.077525 40 37.900391 40 L 25.314453 40 C 24.517291 38.922637 22.828125 38.578125 22.828125 38.578125 C 22.828125 38.578125 24.788656 35.638203 21.847656 34.658203 C 21.266242 34.463755 20.88309 34.050852 20.617188 33.535156 C 21.572099 33.316391 22.468068 33.146484 23 33.146484 C 23.75 33.146484 24.405675 33.331119 25.097656 33.566406 C 25.789637 33.801694 26.493773 34.146484 27.5 34.146484 C 29.224097 34.146484 30.241317 33.095145 31.300781 32.25 C 32.360245 31.404855 33.422591 30.607834 33.974609 30.423828 C 34.607068 30.213009 35.006588 30.133566 35.476562 30.152344 z M 7 33.275391 C 9.1778836 33.523052 11.121802 33.857828 12.804688 34.28125 C 12.301526 35.095818 11.064453 36.033811 11.064453 37.599609 C 11.064453 38.863099 11.8743 39.315898 12.453125 40 L 9.0996094 40 C 7.9224746 40 7 39.077525 7 37.900391 L 7 33.275391 z"></path></svg>