<svg xmlns:xlink="http://www.w3.org/1999/xlink" xmlns="http://www.w3.org/2000/svg" viewBox="0 0 48 48" width="172" height="172"><path d="M 11.5 6 C 8.467 6 6 8.467 6 11.5 L 6 36.5 C 6 39.533 8.467 42 11.5 42 L 12 42 L 12 27.5 C 12 25.57 13.57 24 15.5 24 L 32.5 24 C 34.43 24 36 25.57 36 27.5 L 36 42 L 36.5 42 C 39.533 42 42 39.533 42 36.5 L 42 15.5 C 42 15.072 41.816094 14.663906 41.496094 14.378906 L 32.496094 6.3789062 C 32.350094 6.2489063 32.181 6.1557969 32 6.0917969 L 32 14.5 C 32 16.43 30.43 18 28.5 18 L 16.5 18 C 14.57 18 13 16.43 13 14.5 L 13 6 L 11.5 6 z M 16 6 L 16 14.5 C 16 14.776 16.224 15 16.5 15 L 28.5 15 C 28.776 15 29 14.776 29 14.5 L 29 6 L 16 6 z M 15.5 27 C 15.224 27 15 27.224 15 27.5 L 15 42 L 33 42 L 33 27.5 C 33 27.224 32.776 27 32.5 27 L 15.5 27 z"></path></svg>