<svg xmlns="http://www.w3.org/2000/svg" viewBox="0 0 16 16"><path d="M 8 2 C 4.686 2 2 4.686 2 8 C 2 11.314 4.686 14 8 14 C 11.314 14 14 11.314 14 8 C 14 4.686 11.314 2 8 2 z M 8 3 C 10.757 3 13 5.243 13 8 C 13 10.757 10.757 13 8 13 C 5.243 13 3 10.757 3 8 C 3 5.243 5.243 3 8 3 z M 6.5 6 A 0.50005 0.50005 0 0 0 6.0253906 6.3417969 L 5.0253906 9.3417969 A 0.50005 0.50005 0 0 0 5.5 10 L 9.5 10 A 0.50005 0.50005 0 0 0 9.9746094 9.6582031 L 10.974609 6.6582031 A 0.50005 0.50005 0 0 0 10.5 6 L 6.5 6 z M 6.8613281 7 L 9.8066406 7 L 9.1386719 9 L 6.1933594 9 L 6.8613281 7 z"/></svg>