<svg xmlns:xlink="http://www.w3.org/1999/xlink" xmlns="http://www.w3.org/2000/svg" viewBox="0 0 48 48" width="172" height="172"><path d="M 16.671875 7.2148438 C 16.486405 7.2190874 16.299581 7.2386152 16.113281 7.2734375 C 13.574331 7.7479578 10.975933 8.649134 8.3554688 9.7148438 A 1.50015 1.50015 0 0 0 7.7226562 10.201172 C 2.0175326 17.763657 0.3684573 25.710581 1.2402344 33.605469 A 1.50015 1.50015 0 0 0 1.9570312 34.726562 C 5.0443136 36.584848 8.2440569 38.215846 11.642578 39.337891 C 13.115662 39.823695 14.751851 39.27377 15.628906 37.992188 L 17.027344 35.945312 C 17.581741 36.085368 18.144758 36.213605 18.714844 36.328125 C 20.410438 36.733685 22.175039 36.957031 23.988281 36.957031 C 25.981196 36.957031 27.915944 36.694149 29.763672 36.207031 C 30.150613 36.12236 30.537903 36.039741 30.917969 35.943359 L 32.390625 38.035156 C 33.27394 39.291311 34.892743 39.826103 36.349609 39.345703 C 39.756167 38.223569 42.960978 36.588499 46.054688 34.726562 A 1.50015 1.50015 0 0 0 46.773438 33.605469 C 47.6452 25.71071 45.995291 17.763742 40.289062 10.201172 A 1.50015 1.50015 0 0 0 39.658203 9.7148438 C 37.037148 8.6478745 34.438942 7.7478833 31.900391 7.2734375 C 30.408472 6.9945742 28.892989 7.7176076 28.173828 9.0546875 L 28.15625 9.0878906 C 26.973043 8.9716886 25.763955 8.862565 24.005859 8.9023438 C 22.246769 8.8617578 21.039043 8.9711398 19.855469 9.0878906 L 19.837891 9.0546875 C 19.208719 7.8862268 17.970165 7.1851384 16.671875 7.2148438 z M 16.826172 10.216797 C 16.982233 10.235833 17.117055 10.3276 17.197266 10.476562 L 17.660156 11.335938 A 1.50015 1.50015 0 0 0 19.175781 12.111328 C 20.401057 11.950157 21.866217 11.849961 23.970703 11.900391 A 1.50015 1.50015 0 0 0 24.041016 11.900391 C 26.144782 11.850921 27.611838 11.951001 28.837891 12.111328 A 1.50015 1.50015 0 0 0 30.353516 11.335938 L 30.814453 10.476562 C 30.919293 10.281643 31.127575 10.18152 31.347656 10.222656 C 33.443438 10.61435 35.747401 11.417301 38.115234 12.363281 C 42.996223 18.995645 44.42905 25.642641 43.8125 32.535156 C 41.062959 34.147542 38.284264 35.549515 35.410156 36.496094 C 35.193022 36.567694 34.974435 36.496392 34.84375 36.310547 L 33.742188 34.746094 C 34.104612 34.573012 34.464659 34.394563 34.816406 34.203125 A 1.50015 1.50015 0 1 0 33.382812 31.568359 C 31.734964 32.4652 29.951905 33.12537 28.074219 33.523438 C 26.764025 33.745094 25.40575 33.885414 23.978516 33.914062 C 22.625605 33.886829 21.326145 33.761688 20.072266 33.560547 C 18.131495 33.167227 16.290693 32.492226 14.59375 31.568359 A 1.50015 1.50015 0 0 0 13.876953 31.375 A 1.50015 1.50015 0 0 0 13.160156 34.203125 C 13.506722 34.391805 13.86178 34.567432 14.21875 34.738281 L 13.152344 36.298828 C 13.023796 36.486666 12.802248 36.561303 12.583984 36.490234 C 9.7179766 35.544001 6.9431409 34.144986 4.2011719 32.537109 C 3.5842436 25.643997 5.0177769 18.996357 9.8984375 12.363281 C 12.266754 11.417839 14.568689 10.614274 16.664062 10.222656 C 16.719464 10.212301 16.774152 10.210452 16.826172 10.216797 z M 30.488281 18.966797 C 28.580281 18.966797 27.009766 21.007281 27.009766 23.488281 C 27.009766 25.969281 28.580281 28.009766 30.488281 28.009766 C 32.396281 28.009766 33.966797 25.969281 33.966797 23.488281 C 33.966797 21.007281 32.396281 18.966797 30.488281 18.966797 z M 16.488281 18.992188 C 14.562281 18.992188 12.976563 21.022281 12.976562 23.488281 C 12.976562 25.954281 14.562281 27.982422 16.488281 27.982422 C 18.414281 27.982422 19.998047 25.954281 19.998047 23.488281 C 19.998047 21.022281 18.414281 18.992187 16.488281 18.992188 z"></path></svg>