<svg xmlns:xlink="http://www.w3.org/1999/xlink" xmlns="http://www.w3.org/2000/svg" viewBox="0 0 48 48" width="172" height="172"><path d="M 18.5 9 C 16.032499 9 14 11.032499 14 13.5 L 14 17.5 C 14 18.094042 14.128485 18.65836 14.341797 19.179688 C 12.530639 19.403793 10.881843 20.38207 10.052734 22.039062 A 1.50015 1.50015 0 0 0 10.052734 22.041016 L 8.5742188 25 L 8.0019531 25 C 6.7253728 25 5.4351855 25.493081 4.4648438 26.464844 C 2.5247097 28.404978 2.5247097 31.595022 4.4648438 33.535156 L 7.4648438 36.535156 C 8.4341028 37.504415 9.7223036 38 11 38 L 37 38 C 38.277696 38 39.565366 37.505482 40.535156 36.537109 A 1.50015 1.50015 0 0 0 40.535156 36.535156 L 43.535156 33.535156 C 45.47529 31.595022 45.47529 28.404978 43.535156 26.464844 C 42.564282 25.494016 41.276006 25 40 25 L 39.425781 25 L 37.947266 22.041016 A 1.50015 1.50015 0 0 0 37.947266 22.039062 C 37.016591 20.179132 35.10736 19 33.027344 19 L 32.498047 19 C 33.181135 18.495664 33.702745 17.804589 33.90625 17 L 41.001953 17 A 2.5 2.5 0 0 0 43 18 A 2.5 2.5 0 0 0 43 13 A 2.5 2.5 0 0 0 41.001953 14 L 33.914062 14 C 33.691349 12.976738 33.023603 12.085043 32.064453 11.605469 L 28.015625 9.5800781 C 27.250635 9.1968938 26.407571 9 25.554688 9 L 18.5 9 z M 18.5 12 L 25.554688 12 C 25.943803 12 26.326865 12.09086 26.671875 12.263672 A 1.50015 1.50015 0 0 0 26.673828 12.263672 L 30.722656 14.289062 C 30.895133 14.375303 31.001698 14.54546 31.001953 14.738281 L 31.001953 15.240234 A 1.50015 1.50015 0 0 0 31.001953 15.751953 L 31.001953 16.263672 C 31.001953 16.457028 30.898142 16.624171 30.724609 16.710938 L 26.673828 18.736328 C 26.324476 18.910021 25.943506 19 25.556641 19 L 18.5 19 C 17.653501 19 17 18.346499 17 17.5 L 17 13.5 C 17 12.653501 17.653501 12 18.5 12 z M 14.972656 22 L 18.5 22 L 25.556641 22 L 33.027344 22 C 33.977327 22 34.838347 22.532791 35.263672 23.382812 L 36.074219 25 L 11.925781 25 L 12.736328 23.382812 L 12.736328 23.380859 C 13.161889 22.531669 14.023175 22 14.972656 22 z M 8.0019531 28 L 9.4492188 28 L 38.5 28 L 40 28 C 40.513994 28 41.016937 28.188811 41.414062 28.585938 C 42.207929 29.379803 42.207929 30.620198 41.414062 31.414062 L 38.414062 34.414062 C 38.016076 34.81073 37.513698 35 37 35 L 11 35 C 10.485696 35 9.9826783 34.810803 9.5859375 34.414062 L 6.5859375 31.414062 C 5.7920716 30.620197 5.7920716 29.379802 6.5859375 28.585938 A 1.50015 1.50015 0 0 0 6.5878906 28.583984 C 6.9835519 28.187793 7.4865335 28 8.0019531 28 z M 13.5 29 A 2.5 2.5 0 0 0 13.5 34 A 2.5 2.5 0 0 0 13.5 29 z M 20.5 29 A 2.5 2.5 0 0 0 20.5 34 A 2.5 2.5 0 0 0 20.5 29 z M 27.5 29 A 2.5 2.5 0 0 0 27.5 34 A 2.5 2.5 0 0 0 27.5 29 z M 34.5 29 A 2.5 2.5 0 0 0 34.5 34 A 2.5 2.5 0 0 0 34.5 29 z"></path></svg>