<svg xmlns:xlink="http://www.w3.org/1999/xlink" xmlns="http://www.w3.org/2000/svg" viewBox="0 0 48 48" width="172" height="172"><path d="M 32 6 C 26.568583 6 22.160643 10.388731 22.042969 15.792969 C 17.240727 15.216998 14.113589 13.421507 12.195312 11.652344 C 10.067982 9.6903754 9.3945312 7.9472656 9.3945312 7.9472656 A 1.50015 1.50015 0 0 0 6.8007812 7.5996094 C 6.8007812 7.5996094 5 10 5 13.5 C 5 15.500985 5.6317952 16.981554 6.3847656 18.236328 C 6.3570276 18.223338 6.1699219 18.158203 6.1699219 18.158203 A 1.50015 1.50015 0 0 0 4.0058594 19.636719 C 4.0058594 19.636719 4.5832039 23.856843 8.5507812 26.941406 L 8.1367188 27.044922 A 1.50015 1.50015 0 0 0 7.1972656 29.244141 C 7.1972656 29.244141 7.8700527 30.382221 9.2792969 31.580078 C 10.11485 32.290298 11.34227 33.023169 12.789062 33.701172 C 11.012271 34.35044 8.362818 35 4.5 35 A 1.50015 1.50015 0 0 0 3.3710938 37.488281 C 3.3710938 37.488281 4.5173251 38.751002 6.7832031 39.849609 C 9.0490812 40.948217 12.539474 42 17.5 42 C 26.219697 42 32.484656 37.817151 36.394531 32.515625 C 40.304407 27.214099 42 20.861111 42 16 C 42 15.691547 41.980739 15.387437 41.953125 15.085938 C 44.064371 13.051602 44.856626 11.522235 44.894531 11.447266 C 45.084531 11.066266 45.01375 10.608688 44.71875 10.304688 C 44.42475 9.9996875 43.969031 9.9137969 43.582031 10.091797 L 43.419922 10.166016 C 43.280922 10.230016 43.141953 10.294422 43.001953 10.357422 C 43.408953 9.7084219 43.730125 9.014875 43.953125 8.296875 C 44.077125 7.900875 43.943234 7.4669375 43.615234 7.2109375 C 43.287234 6.9549375 42.835469 6.9275312 42.480469 7.1445312 C 41.258221 7.8873594 40.086652 8.40739 38.867188 8.7558594 C 37.072578 7.0534724 34.656873 6 32 6 z M 32 9 C 35.883178 9 39 12.116822 39 16 C 39 20.138889 37.445593 26.035901 33.980469 30.734375 C 30.515344 35.432849 25.280303 39 17.5 39 C 13.7348 39 11.230189 38.318942 9.3535156 37.582031 C 11.319341 37.276755 13.011947 36.869367 14.228516 36.398438 C 16.338182 35.581792 17.476563 34.638672 17.476562 34.638672 A 1.50015 1.50015 0 0 0 16.863281 32.044922 C 14.140556 31.364241 12.394328 30.263307 11.298828 29.345703 L 12.863281 28.955078 A 1.50015 1.50015 0 0 0 13.039062 26.099609 C 9.7939415 24.851486 8.4312292 23.086373 7.734375 21.607422 C 8.5823538 21.782967 9.3718961 22 10.5 22 A 1.50015 1.50015 0 0 0 11.169922 19.158203 C 11.169922 19.158203 8 17.7 8 13.5 C 8 12.745947 8.2088435 12.268355 8.3613281 11.697266 C 8.884507 12.400354 9.3156815 13.07859 10.160156 13.857422 C 12.734824 16.231954 16.990366 18.653154 23.419922 18.998047 A 1.50015 1.50015 0 0 0 25 17.5 L 25 16 C 25 12.116822 28.116822 9 32 9 z"></path></svg>